<?xml version="1.0" encoding="UTF-8" standalone="no"?>
<!DOCTYPE svg PUBLIC "-//W3C//DTD SVG 1.1//EN"
 "http://www.w3.org/Graphics/SVG/1.1/DTD/svg11.dtd">
<!-- Generated by graphviz version 2.38.0 (20140413.2041)
 -->
<!-- Title: %3 Pages: 1 -->
<svg width="1322pt" height="476pt"
 viewBox="0.00 0.00 1321.90 476.00" xmlns="http://www.w3.org/2000/svg" xmlns:xlink="http://www.w3.org/1999/xlink">
<g id="graph0" class="graph" transform="scale(1 1) rotate(0) translate(4 472)">
<title>%3</title>
<polygon fill="white" stroke="none" points="-4,4 -4,-472 1317.9,-472 1317.9,4 -4,4"/>
<!-- flow2_0 -->
<g id="node1" class="node"><title>flow2_0</title>
<polygon fill="none" stroke="black" points="330.588,-450 297.294,-468 230.706,-468 197.412,-450 230.706,-432 297.294,-432 330.588,-450"/>
<text text-anchor="middle" x="264" y="-446.3" font-family="Times,serif" font-size="14.00">alwaysTrue()</text>
</g>
<!-- Task3 -->
<g id="node2" class="node"><title>Task3</title>
<ellipse fill="none" stroke="black" cx="264" cy="-378" rx="32.4942" ry="18"/>
<text text-anchor="middle" x="264" y="-374.3" font-family="Times,serif" font-size="14.00">Task3</text>
</g>
<!-- flow2_0&#45;&gt;Task3 -->
<g id="edge2" class="edge"><title>flow2_0&#45;&gt;Task3</title>
<path fill="none" stroke="black" d="M264,-431.697C264,-423.983 264,-414.712 264,-406.112"/>
<polygon fill="black" stroke="black" points="267.5,-406.104 264,-396.104 260.5,-406.104 267.5,-406.104"/>
</g>
<!-- storage1 -->
<g id="node3" class="node"><title>storage1</title>
<polygon fill="none" stroke="black" points="62,-180 59,-184 38,-184 35,-180 0,-180 0,-144 62,-144 62,-180"/>
<text text-anchor="middle" x="31" y="-158.3" font-family="Times,serif" font-size="14.00">storage1</text>
</g>
<!-- Task3&#45;&gt;storage1 -->
<g id="edge1" class="edge"><title>Task3&#45;&gt;storage1</title>
<path fill="none" stroke="black" d="M234.662,-369.934C207.333,-362.211 166.616,-347.675 138,-324 92.6185,-286.453 59.172,-224.721 42.6247,-189.609"/>
<polygon fill="black" stroke="black" points="45.771,-188.074 38.4097,-180.454 39.4126,-191.002 45.771,-188.074"/>
</g>
<!-- flow2_1 -->
<g id="node4" class="node"><title>flow2_1</title>
<polygon fill="none" stroke="black" points="789.419,-306 628.709,-324 307.291,-324 146.581,-306 307.291,-288 628.709,-288 789.419,-306"/>
<text text-anchor="middle" x="468" y="-302.3" font-family="Times,serif" font-size="14.00">fieldEqual(db.get(&#39;storage1&#39;, &#39;flow2&#39;, &#39;Task3&#39;), key=[&#39;foo&#39;, &#39;bar&#39;], value=&#39;baz&#39;)</text>
</g>
<!-- Task3&#45;&gt;flow2_1 -->
<g id="edge6" class="edge"><title>Task3&#45;&gt;flow2_1</title>
<path fill="none" stroke="black" d="M291.09,-367.705C320.964,-357.453 369.947,-340.646 408.804,-327.312"/>
<polygon fill="black" stroke="black" points="410.125,-330.56 418.447,-324.003 407.853,-323.938 410.125,-330.56"/>
</g>
<!-- Task4 -->
<g id="node5" class="node"><title>Task4</title>
<ellipse fill="none" stroke="black" cx="468" cy="-234" rx="32.4942" ry="18"/>
<text text-anchor="middle" x="468" y="-230.3" font-family="Times,serif" font-size="14.00">Task4</text>
</g>
<!-- flow2_1&#45;&gt;Task4 -->
<g id="edge4" class="edge"><title>flow2_1&#45;&gt;Task4</title>
<path fill="none" stroke="black" d="M468,-287.697C468,-279.983 468,-270.712 468,-262.112"/>
<polygon fill="black" stroke="black" points="471.5,-262.104 468,-252.104 464.5,-262.104 471.5,-262.104"/>
</g>
<!-- flow1 -->
<g id="node6" class="node"><title>flow1</title>
<ellipse fill="#cccccc" stroke="black" cx="667" cy="-234" rx="31.3957" ry="18"/>
<text text-anchor="middle" x="667" y="-230.3" font-family="Times,serif" font-size="14.00">flow1</text>
</g>
<!-- flow2_1&#45;&gt;flow1 -->
<g id="edge5" class="edge"><title>flow2_1&#45;&gt;flow1</title>
<path fill="none" stroke="black" d="M516.426,-287.966C551.827,-275.513 599.06,-258.898 631.119,-247.622"/>
<polygon fill="black" stroke="black" points="632.688,-250.78 640.96,-244.16 630.365,-244.176 632.688,-250.78"/>
</g>
<!-- Task4&#45;&gt;storage1 -->
<g id="edge3" class="edge"><title>Task4&#45;&gt;storage1</title>
<path fill="none" stroke="black" d="M435.772,-231.631C369.012,-228.175 210.928,-216.778 72.1177,-179.883"/>
<polygon fill="black" stroke="black" points="72.7257,-176.421 62.1582,-177.182 70.8936,-183.177 72.7257,-176.421"/>
</g>
<!-- flow2_2 -->
<g id="node7" class="node"><title>flow2_2</title>
<polygon fill="none" stroke="black" points="1313.8,-162 1005.4,-180 388.598,-180 80.1965,-162 388.598,-144 1005.4,-144 1313.8,-162"/>
<text text-anchor="middle" x="697" y="-158.3" font-family="Times,serif" font-size="14.00">((not fieldEqual(db.get(&#39;storage1&#39;, &#39;flow2&#39;, &#39;Task4&#39;), key=&#39;foo&#39;, value=True)) and fieldGreater(db.get(&#39;storage1&#39;, &#39;flow2&#39;, &#39;Task4&#39;), key=&#39;bar&#39;, value=5))</text>
</g>
<!-- Task4&#45;&gt;flow2_2 -->
<g id="edge9" class="edge"><title>Task4&#45;&gt;flow2_2</title>
<path fill="none" stroke="black" d="M496.08,-224.417C529.572,-214.179 586.648,-196.732 631.428,-183.044"/>
<polygon fill="black" stroke="black" points="632.532,-186.366 641.072,-180.096 630.486,-179.672 632.532,-186.366"/>
</g>
<!-- flow1&#45;&gt;flow2_2 -->
<g id="edge10" class="edge"><title>flow1&#45;&gt;flow2_2</title>
<path fill="none" stroke="black" d="M674.11,-216.411C677.52,-208.454 681.691,-198.722 685.533,-189.756"/>
<polygon fill="black" stroke="black" points="688.801,-191.017 689.523,-180.447 682.367,-188.259 688.801,-191.017"/>
</g>
<!-- Task5 -->
<g id="node8" class="node"><title>Task5</title>
<ellipse fill="none" stroke="black" cx="697" cy="-90" rx="32.4942" ry="18"/>
<text text-anchor="middle" x="697" y="-86.3" font-family="Times,serif" font-size="14.00">Task5</text>
</g>
<!-- flow2_2&#45;&gt;Task5 -->
<g id="edge8" class="edge"><title>flow2_2&#45;&gt;Task5</title>
<path fill="none" stroke="black" d="M697,-143.697C697,-135.983 697,-126.712 697,-118.112"/>
<polygon fill="black" stroke="black" points="700.5,-118.104 697,-108.104 693.5,-118.104 700.5,-118.104"/>
</g>
<!-- storage2 -->
<g id="node9" class="node"><title>storage2</title>
<polygon fill="none" stroke="black" points="728,-36 725,-40 704,-40 701,-36 666,-36 666,-0 728,-0 728,-36"/>
<text text-anchor="middle" x="697" y="-14.3" font-family="Times,serif" font-size="14.00">storage2</text>
</g>
<!-- Task5&#45;&gt;storage2 -->
<g id="edge7" class="edge"><title>Task5&#45;&gt;storage2</title>
<path fill="none" stroke="black" d="M697,-71.6966C697,-63.9827 697,-54.7125 697,-46.1124"/>
<polygon fill="black" stroke="black" points="700.5,-46.1043 697,-36.1043 693.5,-46.1044 700.5,-46.1043"/>
</g>
</g>
</svg>
