<?xml version="1.0" encoding="UTF-8" standalone="no"?>
<!DOCTYPE svg PUBLIC "-//W3C//DTD SVG 1.1//EN"
 "http://www.w3.org/Graphics/SVG/1.1/DTD/svg11.dtd">
<!-- Generated by graphviz version 2.38.0 (20140413.2041)
 -->
<!-- Title: %3 Pages: 1 -->
<svg width="1445pt" height="476pt"
 viewBox="0.00 0.00 1444.92 476.00" xmlns="http://www.w3.org/2000/svg" xmlns:xlink="http://www.w3.org/1999/xlink">
<g id="graph0" class="graph" transform="scale(1 1) rotate(0) translate(4 472)">
<title>%3</title>
<polygon fill="white" stroke="none" points="-4,4 -4,-472 1440.92,-472 1440.92,4 -4,4"/>
<!-- flow3_0 -->
<g id="node1" class="node"><title>flow3_0</title>
<polygon fill="none" stroke="black" points="714.588,-450 681.294,-468 614.706,-468 581.412,-450 614.706,-432 681.294,-432 714.588,-450"/>
<text text-anchor="middle" x="648" y="-446.3" font-family="Times,serif" font-size="14.00">alwaysTrue()</text>
</g>
<!-- Task3 -->
<g id="node2" class="node"><title>Task3</title>
<ellipse fill="none" stroke="black" cx="648" cy="-378" rx="32.4942" ry="18"/>
<text text-anchor="middle" x="648" y="-374.3" font-family="Times,serif" font-size="14.00">Task3</text>
</g>
<!-- flow3_0&#45;&gt;Task3 -->
<g id="edge2" class="edge"><title>flow3_0&#45;&gt;Task3</title>
<path fill="none" stroke="black" d="M648,-431.697C648,-423.983 648,-414.712 648,-406.112"/>
<polygon fill="black" stroke="black" points="651.5,-406.104 648,-396.104 644.5,-406.104 651.5,-406.104"/>
</g>
<!-- storage1 -->
<g id="node3" class="node"><title>storage1</title>
<polygon fill="none" stroke="black" points="62,-180 59,-184 38,-184 35,-180 0,-180 0,-144 62,-144 62,-180"/>
<text text-anchor="middle" x="31" y="-158.3" font-family="Times,serif" font-size="14.00">storage1</text>
</g>
<!-- Task3&#45;&gt;storage1 -->
<g id="edge1" class="edge"><title>Task3&#45;&gt;storage1</title>
<path fill="none" stroke="black" d="M615.694,-375.564C555.536,-372.079 422.934,-360.558 318,-324 218.805,-289.441 114.052,-221.475 62.8935,-185.915"/>
<polygon fill="black" stroke="black" points="64.763,-182.951 54.5642,-180.081 60.7474,-188.685 64.763,-182.951"/>
</g>
<!-- flow3_1 -->
<g id="node4" class="node"><title>flow3_1</title>
<polygon fill="none" stroke="black" points="969.419,-306 808.709,-324 487.291,-324 326.581,-306 487.291,-288 808.709,-288 969.419,-306"/>
<text text-anchor="middle" x="648" y="-302.3" font-family="Times,serif" font-size="14.00">fieldEqual(db.get(&#39;storage1&#39;, &#39;flow3&#39;, &#39;Task3&#39;), key=[&#39;foo&#39;, &#39;bar&#39;], value=&#39;baz&#39;)</text>
</g>
<!-- Task3&#45;&gt;flow3_1 -->
<g id="edge6" class="edge"><title>Task3&#45;&gt;flow3_1</title>
<path fill="none" stroke="black" d="M648,-359.697C648,-351.983 648,-342.712 648,-334.112"/>
<polygon fill="black" stroke="black" points="651.5,-334.104 648,-324.104 644.5,-334.104 651.5,-334.104"/>
</g>
<!-- Task4 -->
<g id="node5" class="node"><title>Task4</title>
<ellipse fill="none" stroke="black" cx="607" cy="-234" rx="32.4942" ry="18"/>
<text text-anchor="middle" x="607" y="-230.3" font-family="Times,serif" font-size="14.00">Task4</text>
</g>
<!-- flow3_1&#45;&gt;Task4 -->
<g id="edge4" class="edge"><title>flow3_1&#45;&gt;Task4</title>
<path fill="none" stroke="black" d="M637.865,-287.697C633.028,-279.437 627.145,-269.394 621.818,-260.299"/>
<polygon fill="black" stroke="black" points="624.81,-258.482 616.736,-251.622 618.77,-262.02 624.81,-258.482"/>
</g>
<!-- flow1 -->
<g id="node6" class="node"><title>flow1</title>
<ellipse fill="#cccccc" stroke="black" cx="689" cy="-234" rx="31.3957" ry="18"/>
<text text-anchor="middle" x="689" y="-230.3" font-family="Times,serif" font-size="14.00">flow1</text>
</g>
<!-- flow3_1&#45;&gt;flow1 -->
<g id="edge5" class="edge"><title>flow3_1&#45;&gt;flow1</title>
<path fill="none" stroke="black" d="M658.135,-287.697C662.972,-279.437 668.855,-269.394 674.182,-260.299"/>
<polygon fill="black" stroke="black" points="677.23,-262.02 679.264,-251.622 671.19,-258.482 677.23,-262.02"/>
</g>
<!-- Task4&#45;&gt;storage1 -->
<g id="edge3" class="edge"><title>Task4&#45;&gt;storage1</title>
<path fill="none" stroke="black" d="M574.39,-233.181C491.246,-232.929 264.862,-227.758 71.8746,-179.756"/>
<polygon fill="black" stroke="black" points="72.6833,-176.351 62.13,-177.288 70.9647,-183.136 72.6833,-176.351"/>
</g>
<!-- flow3_2 -->
<g id="node7" class="node"><title>flow3_2</title>
<polygon fill="none" stroke="black" points="1313.8,-162 1005.4,-180 388.598,-180 80.1965,-162 388.598,-144 1005.4,-144 1313.8,-162"/>
<text text-anchor="middle" x="697" y="-158.3" font-family="Times,serif" font-size="14.00">((not fieldEqual(db.get(&#39;storage1&#39;, &#39;flow3&#39;, &#39;Task4&#39;), key=&#39;foo&#39;, value=True)) and fieldGreater(db.get(&#39;storage1&#39;, &#39;flow3&#39;, &#39;Task4&#39;), key=&#39;bar&#39;, value=5))</text>
</g>
<!-- Task4&#45;&gt;flow3_2 -->
<g id="edge9" class="edge"><title>Task4&#45;&gt;flow3_2</title>
<path fill="none" stroke="black" d="M625.213,-218.834C637.123,-209.571 652.969,-197.246 666.743,-186.533"/>
<polygon fill="black" stroke="black" points="669.253,-189.015 674.998,-180.113 664.956,-183.489 669.253,-189.015"/>
</g>
<!-- Task5 -->
<g id="node8" class="node"><title>Task5</title>
<ellipse fill="none" stroke="black" cx="781" cy="-90" rx="32.4942" ry="18"/>
<text text-anchor="middle" x="781" y="-86.3" font-family="Times,serif" font-size="14.00">Task5</text>
</g>
<!-- flow3_2&#45;&gt;Task5 -->
<g id="edge8" class="edge"><title>flow3_2&#45;&gt;Task5</title>
<path fill="none" stroke="black" d="M717.764,-143.697C729.212,-134.157 743.515,-122.237 755.622,-112.148"/>
<polygon fill="black" stroke="black" points="758.149,-114.599 763.59,-105.508 753.667,-109.221 758.149,-114.599"/>
</g>
<!-- storage2 -->
<g id="node9" class="node"><title>storage2</title>
<polygon fill="none" stroke="black" points="812,-36 809,-40 788,-40 785,-36 750,-36 750,-0 812,-0 812,-36"/>
<text text-anchor="middle" x="781" y="-14.3" font-family="Times,serif" font-size="14.00">storage2</text>
</g>
<!-- Task5&#45;&gt;storage2 -->
<g id="edge7" class="edge"><title>Task5&#45;&gt;storage2</title>
<path fill="none" stroke="black" d="M781,-71.6966C781,-63.9827 781,-54.7125 781,-46.1124"/>
<polygon fill="black" stroke="black" points="784.5,-46.1043 781,-36.1043 777.5,-46.1044 784.5,-46.1043"/>
</g>
<!-- flow3_3 -->
<g id="node10" class="node"><title>flow3_3</title>
<polygon fill="none" stroke="black" points="1436.84,-18 1305.92,-36 1044.08,-36 913.159,-18 1044.08,-2.84217e-14 1305.92,-0 1436.84,-18"/>
<text text-anchor="middle" x="1175" y="-14.3" font-family="Times,serif" font-size="14.00">(not fieldNone(db.get(&#39;storage2&#39;, &#39;flow3&#39;, &#39;Task5&#39;), key=&#39;foo&#39;))</text>
</g>
<!-- Task5&#45;&gt;flow3_3 -->
<g id="edge11" class="edge"><title>Task5&#45;&gt;flow3_3</title>
<path fill="none" stroke="black" d="M811.589,-83.5655C866.168,-73.8687 982.713,-53.1626 1069.18,-37.7996"/>
<polygon fill="black" stroke="black" points="1069.81,-41.2435 1079.04,-36.0481 1068.59,-34.3514 1069.81,-41.2435"/>
</g>
<!-- flow3_3&#45;&gt;Task3 -->
<g id="edge10" class="edge"><title>flow3_3&#45;&gt;Task3</title>
<path fill="none" stroke="black" d="M1222.86,-36.0772C1272.2,-57.12 1342,-98.0152 1342,-161 1342,-235 1342,-235 1342,-235 1342,-368.611 842.035,-377.71 690.816,-377.407"/>
<polygon fill="black" stroke="black" points="690.555,-373.906 680.542,-377.37 690.53,-380.906 690.555,-373.906"/>
</g>
</g>
</svg>
