<?xml version="1.0" encoding="UTF-8" standalone="no"?>
<!DOCTYPE svg PUBLIC "-//W3C//DTD SVG 1.1//EN"
 "http://www.w3.org/Graphics/SVG/1.1/DTD/svg11.dtd">
<!-- Generated by graphviz version 2.38.0 (20140413.2041)
 -->
<!-- Title: %3 Pages: 1 -->
<svg width="142pt" height="260pt"
 viewBox="0.00 0.00 141.59 260.00" xmlns="http://www.w3.org/2000/svg" xmlns:xlink="http://www.w3.org/1999/xlink">
<g id="graph0" class="graph" transform="scale(1 1) rotate(0) translate(4 256)">
<title>%3</title>
<polygon fill="white" stroke="none" points="-4,4 -4,-256 137.587,-256 137.587,4 -4,4"/>
<!-- flow1_0 -->
<g id="node1" class="node"><title>flow1_0</title>
<polygon fill="none" stroke="black" points="133.381,-90 100.087,-108 33.4997,-108 0.205864,-90 33.4997,-72 100.087,-72 133.381,-90"/>
<text text-anchor="middle" x="66.7935" y="-86.3" font-family="Times,serif" font-size="14.00">alwaysTrue()</text>
</g>
<!-- Task2 -->
<g id="node2" class="node"><title>Task2</title>
<ellipse fill="none" stroke="black" cx="66.7935" cy="-18" rx="32.4942" ry="18"/>
<text text-anchor="middle" x="66.7935" y="-14.3" font-family="Times,serif" font-size="14.00">Task2</text>
</g>
<!-- flow1_0&#45;&gt;Task2 -->
<g id="edge1" class="edge"><title>flow1_0&#45;&gt;Task2</title>
<path fill="none" stroke="black" d="M66.7935,-71.6966C66.7935,-63.9827 66.7935,-54.7125 66.7935,-46.1124"/>
<polygon fill="black" stroke="black" points="70.2936,-46.1043 66.7935,-36.1043 63.2936,-46.1044 70.2936,-46.1043"/>
</g>
<!-- Task1 -->
<g id="node3" class="node"><title>Task1</title>
<ellipse fill="none" stroke="black" cx="66.7935" cy="-162" rx="32.4942" ry="18"/>
<text text-anchor="middle" x="66.7935" y="-158.3" font-family="Times,serif" font-size="14.00">Task1</text>
</g>
<!-- Task1&#45;&gt;flow1_0 -->
<g id="edge2" class="edge"><title>Task1&#45;&gt;flow1_0</title>
<path fill="none" stroke="black" d="M66.7935,-143.697C66.7935,-135.983 66.7935,-126.712 66.7935,-118.112"/>
<polygon fill="black" stroke="black" points="70.2936,-118.104 66.7935,-108.104 63.2936,-118.104 70.2936,-118.104"/>
</g>
<!-- flow1_1 -->
<g id="node4" class="node"><title>flow1_1</title>
<polygon fill="none" stroke="black" points="133.381,-234 100.087,-252 33.4997,-252 0.205864,-234 33.4997,-216 100.087,-216 133.381,-234"/>
<text text-anchor="middle" x="66.7935" y="-230.3" font-family="Times,serif" font-size="14.00">alwaysTrue()</text>
</g>
<!-- flow1_1&#45;&gt;Task1 -->
<g id="edge3" class="edge"><title>flow1_1&#45;&gt;Task1</title>
<path fill="none" stroke="black" d="M66.7935,-215.697C66.7935,-207.983 66.7935,-198.712 66.7935,-190.112"/>
<polygon fill="black" stroke="black" points="70.2936,-190.104 66.7935,-180.104 63.2936,-190.104 70.2936,-190.104"/>
</g>
</g>
</svg>
