<?xml version="1.0" encoding="UTF-8" standalone="no"?>
<!DOCTYPE svg PUBLIC "-//W3C//DTD SVG 1.1//EN"
 "http://www.w3.org/Graphics/SVG/1.1/DTD/svg11.dtd">
<!-- Generated by graphviz version 2.38.0 (20140413.2041)
 -->
<!-- Title: %3 Pages: 1 -->
<svg width="960pt" height="476pt"
 viewBox="0.00 0.00 960.40 476.00" xmlns="http://www.w3.org/2000/svg" xmlns:xlink="http://www.w3.org/1999/xlink">
<g id="graph0" class="graph" transform="scale(1 1) rotate(0) translate(4 472)">
<title>%3</title>
<polygon fill="white" stroke="none" points="-4,4 -4,-472 956.401,-472 956.401,4 -4,4"/>
<!-- flow3_0 -->
<g id="node1" class="node"><title>flow3_0</title>
<polygon fill="none" stroke="black" points="814.875,-450 781.581,-468 714.994,-468 681.7,-450 714.994,-432 781.581,-432 814.875,-450"/>
<text text-anchor="middle" x="748.287" y="-446.3" font-family="Times,serif" font-size="14.00">alwaysTrue()</text>
</g>
<!-- Task3 -->
<g id="node2" class="node"><title>Task3</title>
<ellipse fill="none" stroke="black" cx="748.287" cy="-378" rx="32.4942" ry="18"/>
<text text-anchor="middle" x="748.287" y="-374.3" font-family="Times,serif" font-size="14.00">Task3</text>
</g>
<!-- flow3_0&#45;&gt;Task3 -->
<g id="edge1" class="edge"><title>flow3_0&#45;&gt;Task3</title>
<path fill="none" stroke="black" d="M748.287,-431.697C748.287,-423.983 748.287,-414.712 748.287,-406.112"/>
<polygon fill="black" stroke="black" points="751.787,-406.104 748.287,-396.104 744.787,-406.104 751.787,-406.104"/>
</g>
<!-- flow3_1 -->
<g id="node3" class="node"><title>flow3_1</title>
<polygon fill="none" stroke="black" points="819.591,-306 702.939,-324 469.635,-324 352.983,-306 469.635,-288 702.939,-288 819.591,-306"/>
<text text-anchor="middle" x="586.287" y="-302.3" font-family="Times,serif" font-size="14.00">fieldEqual(db[&#39;&#39;Task3&#39;&#39;], key=[&#39;foo&#39;, &#39;bar&#39;], value=&#39;baz&#39;)</text>
</g>
<!-- Task3&#45;&gt;flow3_1 -->
<g id="edge4" class="edge"><title>Task3&#45;&gt;flow3_1</title>
<path fill="none" stroke="black" d="M723.33,-366.216C699.864,-356.076 664.091,-340.619 634.978,-328.039"/>
<polygon fill="black" stroke="black" points="636.351,-324.82 625.783,-324.066 633.575,-331.246 636.351,-324.82"/>
</g>
<!-- Task4 -->
<g id="node4" class="node"><title>Task4</title>
<ellipse fill="none" stroke="black" cx="472.287" cy="-234" rx="32.4942" ry="18"/>
<text text-anchor="middle" x="472.287" y="-230.3" font-family="Times,serif" font-size="14.00">Task4</text>
</g>
<!-- flow3_1&#45;&gt;Task4 -->
<g id="edge2" class="edge"><title>flow3_1&#45;&gt;Task4</title>
<path fill="none" stroke="black" d="M558.4,-287.876C541.336,-277.398 519.513,-263.998 502.106,-253.31"/>
<polygon fill="black" stroke="black" points="503.808,-250.247 493.454,-247.997 500.145,-256.213 503.808,-250.247"/>
</g>
<!-- flow1 -->
<g id="node5" class="node"><title>flow1</title>
<ellipse fill="#cccccc" stroke="black" cx="586.287" cy="-234" rx="31.3957" ry="18"/>
<text text-anchor="middle" x="586.287" y="-230.3" font-family="Times,serif" font-size="14.00">flow1</text>
</g>
<!-- flow3_1&#45;&gt;flow1 -->
<g id="edge3" class="edge"><title>flow3_1&#45;&gt;flow1</title>
<path fill="none" stroke="black" d="M586.287,-287.697C586.287,-279.983 586.287,-270.712 586.287,-262.112"/>
<polygon fill="black" stroke="black" points="589.787,-262.104 586.287,-252.104 582.787,-262.104 589.787,-262.104"/>
</g>
<!-- flow3_2 -->
<g id="node6" class="node"><title>flow3_2</title>
<polygon fill="none" stroke="black" points="882.362,-162 661.825,-180 220.75,-180 0.212508,-162 220.75,-144 661.825,-144 882.362,-162"/>
<text text-anchor="middle" x="441.287" y="-158.3" font-family="Times,serif" font-size="14.00">((not fieldEqual(db[&#39;&#39;Task4&#39;&#39;], key=&#39;foo&#39;, value=True)) and fieldGreater(db[&#39;&#39;Task4&#39;&#39;], key=&#39;bar&#39;, value=5))</text>
</g>
<!-- Task4&#45;&gt;flow3_2 -->
<g id="edge6" class="edge"><title>Task4&#45;&gt;flow3_2</title>
<path fill="none" stroke="black" d="M464.941,-216.411C461.417,-208.454 457.107,-198.722 453.136,-189.756"/>
<polygon fill="black" stroke="black" points="456.263,-188.173 449.014,-180.447 449.863,-191.008 456.263,-188.173"/>
</g>
<!-- Task5 -->
<g id="node7" class="node"><title>Task5</title>
<ellipse fill="none" stroke="black" cx="646.287" cy="-90" rx="32.4942" ry="18"/>
<text text-anchor="middle" x="646.287" y="-86.3" font-family="Times,serif" font-size="14.00">Task5</text>
</g>
<!-- flow3_2&#45;&gt;Task5 -->
<g id="edge5" class="edge"><title>flow3_2&#45;&gt;Task5</title>
<path fill="none" stroke="black" d="M491.174,-143.966C527.692,-131.496 576.434,-114.852 609.461,-103.575"/>
<polygon fill="black" stroke="black" points="610.843,-106.801 619.176,-100.258 608.581,-100.177 610.843,-106.801"/>
</g>
<!-- flow3_3 -->
<g id="node8" class="node"><title>flow3_3</title>
<polygon fill="none" stroke="black" points="952.514,-18 865.401,-36 691.174,-36 604.061,-18 691.174,-2.84217e-14 865.401,-0 952.514,-18"/>
<text text-anchor="middle" x="778.287" y="-14.3" font-family="Times,serif" font-size="14.00">(not fieldNone(db[&#39;&#39;Task5&#39;&#39;], key=&#39;foo&#39;))</text>
</g>
<!-- Task5&#45;&gt;flow3_3 -->
<g id="edge8" class="edge"><title>Task5&#45;&gt;flow3_3</title>
<path fill="none" stroke="black" d="M668.979,-76.9666C687.637,-67.0719 714.564,-52.7928 737.022,-40.8829"/>
<polygon fill="black" stroke="black" points="738.823,-43.8899 746.018,-36.1127 735.543,-37.7057 738.823,-43.8899"/>
</g>
<!-- flow3_3&#45;&gt;Task3 -->
<g id="edge7" class="edge"><title>flow3_3&#45;&gt;Task3</title>
<path fill="none" stroke="black" d="M811.597,-36.1331C850.7,-58.9062 910.287,-103.106 910.287,-161 910.287,-235 910.287,-235 910.287,-235 910.287,-301.48 832.183,-344.101 784.439,-363.944"/>
<polygon fill="black" stroke="black" points="783.012,-360.745 775.038,-367.721 785.622,-367.24 783.012,-360.745"/>
</g>
</g>
</svg>
