<?xml version="1.0" encoding="UTF-8" standalone="no"?>
<!DOCTYPE svg PUBLIC "-//W3C//DTD SVG 1.1//EN"
 "http://www.w3.org/Graphics/SVG/1.1/DTD/svg11.dtd">
<!-- Generated by graphviz version 2.38.0 (20140413.2041)
 -->
<!-- Title: %3 Pages: 1 -->
<svg width="891pt" height="404pt"
 viewBox="0.00 0.00 890.57 404.00" xmlns="http://www.w3.org/2000/svg" xmlns:xlink="http://www.w3.org/1999/xlink">
<g id="graph0" class="graph" transform="scale(1 1) rotate(0) translate(4 400)">
<title>%3</title>
<polygon fill="white" stroke="none" points="-4,4 -4,-400 886.575,-400 886.575,4 -4,4"/>
<!-- flow2_0 -->
<g id="node1" class="node"><title>flow2_0</title>
<polygon fill="none" stroke="black" points="507.875,-378 474.581,-396 407.994,-396 374.7,-378 407.994,-360 474.581,-360 507.875,-378"/>
<text text-anchor="middle" x="441.287" y="-374.3" font-family="Times,serif" font-size="14.00">alwaysTrue()</text>
</g>
<!-- Task3 -->
<g id="node2" class="node"><title>Task3</title>
<ellipse fill="none" stroke="black" cx="441.287" cy="-306" rx="32.4942" ry="18"/>
<text text-anchor="middle" x="441.287" y="-302.3" font-family="Times,serif" font-size="14.00">Task3</text>
</g>
<!-- flow2_0&#45;&gt;Task3 -->
<g id="edge1" class="edge"><title>flow2_0&#45;&gt;Task3</title>
<path fill="none" stroke="black" d="M441.287,-359.697C441.287,-351.983 441.287,-342.712 441.287,-334.112"/>
<polygon fill="black" stroke="black" points="444.787,-334.104 441.287,-324.104 437.787,-334.104 444.787,-334.104"/>
</g>
<!-- flow2_1 -->
<g id="node3" class="node"><title>flow2_1</title>
<polygon fill="none" stroke="black" points="674.591,-234 557.939,-252 324.635,-252 207.983,-234 324.635,-216 557.939,-216 674.591,-234"/>
<text text-anchor="middle" x="441.287" y="-230.3" font-family="Times,serif" font-size="14.00">fieldEqual(db[&#39;&#39;Task3&#39;&#39;], key=[&#39;foo&#39;, &#39;bar&#39;], value=&#39;baz&#39;)</text>
</g>
<!-- Task3&#45;&gt;flow2_1 -->
<g id="edge4" class="edge"><title>Task3&#45;&gt;flow2_1</title>
<path fill="none" stroke="black" d="M441.287,-287.697C441.287,-279.983 441.287,-270.712 441.287,-262.112"/>
<polygon fill="black" stroke="black" points="444.787,-262.104 441.287,-252.104 437.787,-262.104 444.787,-262.104"/>
</g>
<!-- Task4 -->
<g id="node4" class="node"><title>Task4</title>
<ellipse fill="none" stroke="black" cx="400.287" cy="-162" rx="32.4942" ry="18"/>
<text text-anchor="middle" x="400.287" y="-158.3" font-family="Times,serif" font-size="14.00">Task4</text>
</g>
<!-- flow2_1&#45;&gt;Task4 -->
<g id="edge2" class="edge"><title>flow2_1&#45;&gt;Task4</title>
<path fill="none" stroke="black" d="M431.153,-215.697C426.315,-207.437 420.432,-197.394 415.106,-188.299"/>
<polygon fill="black" stroke="black" points="418.097,-186.482 410.023,-179.622 412.057,-190.02 418.097,-186.482"/>
</g>
<!-- flow1 -->
<g id="node5" class="node"><title>flow1</title>
<ellipse fill="#cccccc" stroke="black" cx="482.287" cy="-162" rx="31.3957" ry="18"/>
<text text-anchor="middle" x="482.287" y="-158.3" font-family="Times,serif" font-size="14.00">flow1</text>
</g>
<!-- flow2_1&#45;&gt;flow1 -->
<g id="edge3" class="edge"><title>flow2_1&#45;&gt;flow1</title>
<path fill="none" stroke="black" d="M451.422,-215.697C456.26,-207.437 462.142,-197.394 467.469,-188.299"/>
<polygon fill="black" stroke="black" points="470.517,-190.02 472.551,-179.622 464.477,-186.482 470.517,-190.02"/>
</g>
<!-- flow2_2 -->
<g id="node6" class="node"><title>flow2_2</title>
<polygon fill="none" stroke="black" points="882.362,-90 661.825,-108 220.75,-108 0.212508,-90 220.75,-72 661.825,-72 882.362,-90"/>
<text text-anchor="middle" x="441.287" y="-86.3" font-family="Times,serif" font-size="14.00">((not fieldEqual(db[&#39;&#39;Task4&#39;&#39;], key=&#39;foo&#39;, value=True)) and fieldGreater(db[&#39;&#39;Task4&#39;&#39;], key=&#39;bar&#39;, value=5))</text>
</g>
<!-- Task4&#45;&gt;flow2_2 -->
<g id="edge6" class="edge"><title>Task4&#45;&gt;flow2_2</title>
<path fill="none" stroke="black" d="M409.797,-144.765C414.622,-136.525 420.602,-126.317 426.05,-117.016"/>
<polygon fill="black" stroke="black" points="429.224,-118.522 431.258,-108.124 423.183,-114.984 429.224,-118.522"/>
</g>
<!-- flow1&#45;&gt;flow2_2 -->
<g id="edge7" class="edge"><title>flow1&#45;&gt;flow2_2</title>
<path fill="none" stroke="black" d="M472.778,-144.765C467.952,-136.525 461.973,-126.317 456.525,-117.016"/>
<polygon fill="black" stroke="black" points="459.391,-114.984 451.317,-108.124 453.351,-118.522 459.391,-114.984"/>
</g>
<!-- Task5 -->
<g id="node7" class="node"><title>Task5</title>
<ellipse fill="none" stroke="black" cx="441.287" cy="-18" rx="32.4942" ry="18"/>
<text text-anchor="middle" x="441.287" y="-14.3" font-family="Times,serif" font-size="14.00">Task5</text>
</g>
<!-- flow2_2&#45;&gt;Task5 -->
<g id="edge5" class="edge"><title>flow2_2&#45;&gt;Task5</title>
<path fill="none" stroke="black" d="M441.287,-71.6966C441.287,-63.9827 441.287,-54.7125 441.287,-46.1124"/>
<polygon fill="black" stroke="black" points="444.787,-46.1043 441.287,-36.1043 437.787,-46.1044 444.787,-46.1043"/>
</g>
</g>
</svg>
