<?xml version="1.0" encoding="UTF-8" standalone="no"?>
<!DOCTYPE svg PUBLIC "-//W3C//DTD SVG 1.1//EN"
 "http://www.w3.org/Graphics/SVG/1.1/DTD/svg11.dtd">
<!-- Generated by graphviz version 2.38.0 (20140413.2041)
 -->
<!-- Title: %3 Pages: 1 -->
<svg width="801pt" height="476pt"
 viewBox="0.00 0.00 800.59 476.00" xmlns="http://www.w3.org/2000/svg" xmlns:xlink="http://www.w3.org/1999/xlink">
<g id="graph0" class="graph" transform="scale(1 1) rotate(0) translate(4 472)">
<title>%3</title>
<polygon fill="white" stroke="none" points="-4,4 -4,-472 796.592,-472 796.592,4 -4,4"/>
<!-- flow3_0 -->
<g id="node1" class="node"><title>flow3_0</title>
<polygon fill="none" stroke="black" points="656.066,-450 622.772,-468 556.184,-468 522.891,-450 556.184,-432 622.772,-432 656.066,-450"/>
<text text-anchor="middle" x="589.478" y="-446.3" font-family="Times,serif" font-size="14.00">alwaysTrue()</text>
</g>
<!-- Task3 -->
<g id="node2" class="node"><title>Task3</title>
<ellipse fill="none" stroke="black" cx="589.478" cy="-378" rx="32.4942" ry="18"/>
<text text-anchor="middle" x="589.478" y="-374.3" font-family="Times,serif" font-size="14.00">Task3</text>
</g>
<!-- flow3_0&#45;&gt;Task3 -->
<g id="edge1" class="edge"><title>flow3_0&#45;&gt;Task3</title>
<path fill="none" stroke="black" d="M589.478,-431.697C589.478,-423.983 589.478,-414.712 589.478,-406.112"/>
<polygon fill="black" stroke="black" points="592.978,-406.104 589.478,-396.104 585.978,-406.104 592.978,-406.104"/>
</g>
<!-- flow3_1 -->
<g id="node3" class="node"><title>flow3_1</title>
<polygon fill="none" stroke="black" points="683.782,-306 567.13,-324 333.826,-324 217.174,-306 333.826,-288 567.13,-288 683.782,-306"/>
<text text-anchor="middle" x="450.478" y="-302.3" font-family="Times,serif" font-size="14.00">fieldEqual(db[&#39;&#39;Task3&#39;&#39;], key=[&#39;foo&#39;, &#39;bar&#39;], value=&#39;baz&#39;)</text>
</g>
<!-- Task3&#45;&gt;flow3_1 -->
<g id="edge4" class="edge"><title>Task3&#45;&gt;flow3_1</title>
<path fill="none" stroke="black" d="M566.213,-365.284C546.339,-355.275 517.234,-340.618 493.184,-328.507"/>
<polygon fill="black" stroke="black" points="494.75,-325.376 484.244,-324.004 491.601,-331.628 494.75,-325.376"/>
</g>
<!-- Task4 -->
<g id="node4" class="node"><title>Task4</title>
<ellipse fill="none" stroke="black" cx="359.478" cy="-234" rx="32.4942" ry="18"/>
<text text-anchor="middle" x="359.478" y="-230.3" font-family="Times,serif" font-size="14.00">Task4</text>
</g>
<!-- flow3_1&#45;&gt;Task4 -->
<g id="edge2" class="edge"><title>flow3_1&#45;&gt;Task4</title>
<path fill="none" stroke="black" d="M427.984,-287.697C415.29,-277.932 399.355,-265.675 386.049,-255.439"/>
<polygon fill="black" stroke="black" points="387.805,-252.374 377.745,-249.051 383.537,-257.922 387.805,-252.374"/>
</g>
<!-- flow1 -->
<g id="node5" class="node"><title>flow1</title>
<ellipse fill="none" stroke="black" cx="450.478" cy="-234" rx="31.3957" ry="18"/>
<text text-anchor="middle" x="450.478" y="-230.3" font-family="Times,serif" font-size="14.00">flow1</text>
</g>
<!-- flow3_1&#45;&gt;flow1 -->
<g id="edge3" class="edge"><title>flow3_1&#45;&gt;flow1</title>
<path fill="none" stroke="black" d="M450.478,-287.697C450.478,-279.983 450.478,-270.712 450.478,-262.112"/>
<polygon fill="black" stroke="black" points="453.978,-262.104 450.478,-252.104 446.978,-262.104 453.978,-262.104"/>
</g>
<!-- flow3_2 -->
<g id="node6" class="node"><title>flow3_2</title>
<polygon fill="none" stroke="black" points="700.935,-162 525.707,-180 175.25,-180 0.0217484,-162 175.25,-144 525.707,-144 700.935,-162"/>
<text text-anchor="middle" x="350.478" y="-158.3" font-family="Times,serif" font-size="14.00">((not fieldEqual(db[&#39;&#39;Task4&#39;&#39;], )) and fieldGreater(db[&#39;&#39;Task4&#39;&#39;], key=&#39;bar&#39;, value=5))</text>
</g>
<!-- Task4&#45;&gt;flow3_2 -->
<g id="edge6" class="edge"><title>Task4&#45;&gt;flow3_2</title>
<path fill="none" stroke="black" d="M357.254,-215.697C356.262,-207.983 355.07,-198.712 353.964,-190.112"/>
<polygon fill="black" stroke="black" points="357.424,-189.576 352.677,-180.104 350.481,-190.469 357.424,-189.576"/>
</g>
<!-- Task5 -->
<g id="node7" class="node"><title>Task5</title>
<ellipse fill="none" stroke="black" cx="509.478" cy="-90" rx="32.4942" ry="18"/>
<text text-anchor="middle" x="509.478" y="-86.3" font-family="Times,serif" font-size="14.00">Task5</text>
</g>
<!-- flow3_2&#45;&gt;Task5 -->
<g id="edge5" class="edge"><title>flow3_2&#45;&gt;Task5</title>
<path fill="none" stroke="black" d="M389.374,-143.876C415.787,-132.248 450.375,-117.021 475.646,-105.895"/>
<polygon fill="black" stroke="black" points="477.097,-109.08 484.839,-101.848 474.276,-102.674 477.097,-109.08"/>
</g>
<!-- flow3_3 -->
<g id="node8" class="node"><title>flow3_3</title>
<polygon fill="none" stroke="black" points="792.705,-18 705.592,-36 531.365,-36 444.251,-18 531.365,-2.84217e-14 705.592,-0 792.705,-18"/>
<text text-anchor="middle" x="618.478" y="-14.3" font-family="Times,serif" font-size="14.00">(not fieldNone(db[&#39;&#39;Task5&#39;&#39;], key=&#39;foo&#39;))</text>
</g>
<!-- Task5&#45;&gt;flow3_3 -->
<g id="edge8" class="edge"><title>Task5&#45;&gt;flow3_3</title>
<path fill="none" stroke="black" d="M529.98,-75.8335C544.895,-66.2555 565.465,-53.0454 583.02,-41.7715"/>
<polygon fill="black" stroke="black" points="585.356,-44.4307 591.879,-36.082 581.574,-38.5407 585.356,-44.4307"/>
</g>
<!-- flow3_3&#45;&gt;Task3 -->
<g id="edge7" class="edge"><title>flow3_3&#45;&gt;Task3</title>
<path fill="none" stroke="black" d="M644.268,-36.0579C676.781,-59.8445 728.478,-106.271 728.478,-161 728.478,-235 728.478,-235 728.478,-235 728.478,-277.669 721.248,-292.489 692.478,-324 674.84,-343.318 648.533,-356.688 626.922,-365.167"/>
<polygon fill="black" stroke="black" points="625.521,-361.954 617.37,-368.723 627.963,-368.514 625.521,-361.954"/>
</g>
</g>
</svg>
