<?xml version="1.0" encoding="UTF-8" standalone="no"?>
<!DOCTYPE svg PUBLIC "-//W3C//DTD SVG 1.1//EN"
 "http://www.w3.org/Graphics/SVG/1.1/DTD/svg11.dtd">
<!-- Generated by graphviz version 2.38.0 (20140413.2041)
 -->
<!-- Title: %3 Pages: 1 -->
<svg width="709pt" height="404pt"
 viewBox="0.00 0.00 708.96 404.00" xmlns="http://www.w3.org/2000/svg" xmlns:xlink="http://www.w3.org/1999/xlink">
<g id="graph0" class="graph" transform="scale(1 1) rotate(0) translate(4 400)">
<title>%3</title>
<polygon fill="white" stroke="none" points="-4,4 -4,-400 704.957,-400 704.957,4 -4,4"/>
<!-- flow2_0 -->
<g id="node1" class="node"><title>flow2_0</title>
<polygon fill="none" stroke="black" points="417.066,-378 383.772,-396 317.184,-396 283.891,-378 317.184,-360 383.772,-360 417.066,-378"/>
<text text-anchor="middle" x="350.478" y="-374.3" font-family="Times,serif" font-size="14.00">alwaysTrue()</text>
</g>
<!-- Task3 -->
<g id="node2" class="node"><title>Task3</title>
<ellipse fill="none" stroke="black" cx="350.478" cy="-306" rx="32.4942" ry="18"/>
<text text-anchor="middle" x="350.478" y="-302.3" font-family="Times,serif" font-size="14.00">Task3</text>
</g>
<!-- flow2_0&#45;&gt;Task3 -->
<g id="edge1" class="edge"><title>flow2_0&#45;&gt;Task3</title>
<path fill="none" stroke="black" d="M350.478,-359.697C350.478,-351.983 350.478,-342.712 350.478,-334.112"/>
<polygon fill="black" stroke="black" points="353.978,-334.104 350.478,-324.104 346.978,-334.104 353.978,-334.104"/>
</g>
<!-- flow2_1 -->
<g id="node3" class="node"><title>flow2_1</title>
<polygon fill="none" stroke="black" points="583.782,-234 467.13,-252 233.826,-252 117.174,-234 233.826,-216 467.13,-216 583.782,-234"/>
<text text-anchor="middle" x="350.478" y="-230.3" font-family="Times,serif" font-size="14.00">fieldEqual(db[&#39;&#39;Task3&#39;&#39;], key=[&#39;foo&#39;, &#39;bar&#39;], value=&#39;baz&#39;)</text>
</g>
<!-- Task3&#45;&gt;flow2_1 -->
<g id="edge4" class="edge"><title>Task3&#45;&gt;flow2_1</title>
<path fill="none" stroke="black" d="M350.478,-287.697C350.478,-279.983 350.478,-270.712 350.478,-262.112"/>
<polygon fill="black" stroke="black" points="353.978,-262.104 350.478,-252.104 346.978,-262.104 353.978,-262.104"/>
</g>
<!-- Task4 -->
<g id="node4" class="node"><title>Task4</title>
<ellipse fill="none" stroke="black" cx="309.478" cy="-162" rx="32.4942" ry="18"/>
<text text-anchor="middle" x="309.478" y="-158.3" font-family="Times,serif" font-size="14.00">Task4</text>
</g>
<!-- flow2_1&#45;&gt;Task4 -->
<g id="edge2" class="edge"><title>flow2_1&#45;&gt;Task4</title>
<path fill="none" stroke="black" d="M340.343,-215.697C335.506,-207.437 329.623,-197.394 324.296,-188.299"/>
<polygon fill="black" stroke="black" points="327.288,-186.482 319.214,-179.622 321.248,-190.02 327.288,-186.482"/>
</g>
<!-- flow1 -->
<g id="node5" class="node"><title>flow1</title>
<ellipse fill="none" stroke="black" cx="391.478" cy="-162" rx="31.3957" ry="18"/>
<text text-anchor="middle" x="391.478" y="-158.3" font-family="Times,serif" font-size="14.00">flow1</text>
</g>
<!-- flow2_1&#45;&gt;flow1 -->
<g id="edge3" class="edge"><title>flow2_1&#45;&gt;flow1</title>
<path fill="none" stroke="black" d="M360.613,-215.697C365.451,-207.437 371.333,-197.394 376.66,-188.299"/>
<polygon fill="black" stroke="black" points="379.708,-190.02 381.742,-179.622 373.668,-186.482 379.708,-190.02"/>
</g>
<!-- flow2_2 -->
<g id="node6" class="node"><title>flow2_2</title>
<polygon fill="none" stroke="black" points="700.935,-90 525.707,-108 175.25,-108 0.0217484,-90 175.25,-72 525.707,-72 700.935,-90"/>
<text text-anchor="middle" x="350.478" y="-86.3" font-family="Times,serif" font-size="14.00">((not fieldEqual(db[&#39;&#39;Task4&#39;&#39;], )) and fieldGreater(db[&#39;&#39;Task4&#39;&#39;], key=&#39;bar&#39;, value=5))</text>
</g>
<!-- Task4&#45;&gt;flow2_2 -->
<g id="edge6" class="edge"><title>Task4&#45;&gt;flow2_2</title>
<path fill="none" stroke="black" d="M318.988,-144.765C323.813,-136.525 329.793,-126.317 335.241,-117.016"/>
<polygon fill="black" stroke="black" points="338.415,-118.522 340.449,-108.124 332.374,-114.984 338.415,-118.522"/>
</g>
<!-- flow1&#45;&gt;flow2_2 -->
<g id="edge7" class="edge"><title>flow1&#45;&gt;flow2_2</title>
<path fill="none" stroke="black" d="M381.969,-144.765C377.143,-136.525 371.164,-126.317 365.716,-117.016"/>
<polygon fill="black" stroke="black" points="368.582,-114.984 360.508,-108.124 362.542,-118.522 368.582,-114.984"/>
</g>
<!-- Task5 -->
<g id="node7" class="node"><title>Task5</title>
<ellipse fill="none" stroke="black" cx="350.478" cy="-18" rx="32.4942" ry="18"/>
<text text-anchor="middle" x="350.478" y="-14.3" font-family="Times,serif" font-size="14.00">Task5</text>
</g>
<!-- flow2_2&#45;&gt;Task5 -->
<g id="edge5" class="edge"><title>flow2_2&#45;&gt;Task5</title>
<path fill="none" stroke="black" d="M350.478,-71.6966C350.478,-63.9827 350.478,-54.7125 350.478,-46.1124"/>
<polygon fill="black" stroke="black" points="353.978,-46.1043 350.478,-36.1043 346.978,-46.1044 353.978,-46.1043"/>
</g>
</g>
</svg>
